<?xml version="1.0" encoding="utf-8"?>
<!-- Generator: Adobe Illustrator 22.1.0, SVG Export Plug-In . SVG Version: 6.00 Build 0)  -->
<svg version="1.1" id="Capa_1" xmlns="http://www.w3.org/2000/svg" xmlns:xlink="http://www.w3.org/1999/xlink" x="0px" y="0px"
	 viewBox="0 0 100 100" style="enable-background:new 0 0 100 100;" xml:space="preserve">
<style type="text/css">
	.st0{fill:none;}
	.st1{fill:#FDE326;}
	.st2{fill:#905B0B;}
</style>
<g>
	<g>
		<path class="st0" d="M50,100C22.4,100,0,77.6,0,50S22.4,0,50,0s50,22.4,50,50S77.6,100,50,100z M50,93.9C25.8,93.9,6,74.2,6,50
			S25.8,6,50,6s44,19.8,44,44S74.2,93.9,50,93.9z"/>
		<path class="st1" d="M24.3,22.2h64c4.5,0,8.1,3.7,8.1,8.1l0,0c0,4.5-3.7,8.1-8.1,8.1h-64c-4.5,0-8.1-3.7-8.1-8.1l0,0
			C16.2,25.8,19.8,22.2,24.3,22.2z"/>
		<path class="st1" d="M35.1,48.1L15.5,34.7c-3.1-2.1-3.1-6.7,0-8.8l19.6-13.2c1.9-1.3,4.3-1.2,6.1,0.1l0,0c2.4,1.7,2.9,5.1,1.1,7.4
			l-5.1,6.9c-1.4,1.9-1.4,4.4,0,6.3l5.2,7.1c1.7,2.4,1.2,5.7-1.1,7.4l0,0C39.4,49.3,37,49.3,35.1,48.1z"/>
	</g>
</g>
<path class="st2" d="M69,40.7L88.6,54c3.1,2.1,3.1,6.7,0,8.8L69,76c-1.9,1.3-4.3,1.2-6.1-0.1l0,0c-2.4-1.7-2.9-5.1-1.1-7.4l5.1-6.9
	c1.4-1.9,1.4-4.4,0-6.3l-5.2-7.1c-1.7-2.4-1.2-5.7,1.1-7.4l0,0C64.7,39.4,67.2,39.4,69,40.7z"/>
<path class="st2" d="M15.6,50.2h64c4.5,0,8.1,3.7,8.1,8.1l0,0c0,4.5-3.7,8.1-8.1,8.1h-64c-4.5,0-8.1-3.7-8.1-8.1l0,0
	C7.5,53.9,11.2,50.2,15.6,50.2z"/>
</svg>
