<?xml version="1.0" encoding="utf-8"?>
<!-- Generator: Adobe Illustrator 22.1.0, SVG Export Plug-In . SVG Version: 6.00 Build 0)  -->
<svg version="1.1" id="Capa_1" xmlns="http://www.w3.org/2000/svg" xmlns:xlink="http://www.w3.org/1999/xlink" x="0px" y="0px"
	 viewBox="0 0 100 105" width="150px" height="150px" style="enable-background:new 0 0 100 105;" xml:space="preserve">
<style type="text/css">
	.st0{fill:#DAD6D6;}
	.st1{fill:#905b0b;}
	.st2{fill:#fde326;}
</style>
<g>
	<g>
		<path class="st0" d="M25,11.7C1.1,25.5-7.1,56.1,6.7,80c13.8,23.9,44.4,32.1,68.3,18.3C98.9,84.5,107.1,53.9,93.3,30
			C79.5,6.1,48.9-2.1,25,11.7z M11.9,33C-0.2,54,7,80.9,28,93.1c21,12.1,47.9,4.9,60-16.1c12.1-21,4.9-47.9-16.1-60
			C51,4.8,24.1,12,11.9,33z"/>
		<rect x="31.7" y="40.5" class="st1" width="6" height="29.4"/>
		<polygon class="st1" points="21.5,66.5 25.1,61.6 34.8,68.7 44.4,61.6 48,66.5 34.8,76.2 		"/>
		<rect x="59" y="43.1" class="st2" width="6" height="29.4"/>
		<polygon class="st2" points="48.8,46.5 62,36.8 75.2,46.5 71.6,51.4 62,44.3 52.3,51.4 		"/>
	</g>
</g>
</svg>
