<?xml version="1.0" encoding="utf-8"?>
<!-- Generator: Adobe Illustrator 22.1.0, SVG Export Plug-In . SVG Version: 6.00 Build 0)  -->
<svg version="1.1" id="Layer_1" xmlns="http://www.w3.org/2000/svg" xmlns:xlink="http://www.w3.org/1999/xlink" x="0px" y="0px"
	 width="50px" height="50px" viewBox="0 0 685 756" style="enable-background:new 0 0 685 756;" xml:space="preserve">
<style type="text/css">
	.st0{fill:#905b0b;}
</style>
<g>
	<path class="st0" d="M331.5,0c-9.7,0-19.3,0-29,0c-1.5,0.3-2.9,0.6-4.4,0.8c-17.4,1.8-34.9,2.7-52.1,5.4
		c-52.5,8.2-101.6,25.7-144.6,57.7C53.3,99.5,21.7,146.4,7.6,204.7c-12,49.9-9,99.5,3.3,148.9c9.3,37.3,23.6,72.3,47.4,103.1
		c7.8,10.1,14.7,21,21.4,32c10,16.4,19.6,33.4,21.2,52.8c1.2,15,0.7,30.4-0.9,45.4c-3.1,29.8-7,59.5-11.6,89.1
		c-4.2,26.8-9.8,53.3-14.8,80c123,0,246,0,369,0c0.3-1.3,0.7-2.6,1-3.9c3.7-18.4,6.7-37,11.3-55.2c2.7-10.5,7.8-20.4,12.2-30.4
		c1.8-4,5.1-5.6,10.1-5.6c32.2,0.1,64.3-0.3,96.5-0.5c18.9-0.1,34.4-7.7,47.6-20.8c12.7-12.6,16.4-27.4,10.9-44.4
		c-3.4-10.5-6.6-20.9-10.2-31.3c-2.5-7.2-2.2-14.3,2-20.6c4-5.9,8.5-11.5,13.1-17c4.8-5.8,5.1-9.2,0.3-14.9
		c-2.8-3.3-5.8-6.5-8.6-9.8c-2.4-2.8-2.2-5.3,1-7.6c3.3-2.3,6.5-4.8,9.4-7.4c6.6-6.1,8.2-13.8,2.8-20.5c-6.3-7.9-9.5-16.9-12.3-26.4
		c-4.3-14.6-1.7-19.4,13.3-22.1c0.8-0.1,1.6-0.4,2.5-0.4c12.7-1,22.8-7.8,32.5-15.2c6.9-5.3,8.4-12.6,5.9-20.6
		c-1.3-4.1-2.7-8.4-5-11.9c-11.3-16.5-22.5-33-34.5-49c-17.2-22.9-35-45.3-52.7-67.9c-2-2.6-2.1-4.7-0.8-7.7
		c4.6-10.7,5.9-21.9,4.4-33.3c-6.7-48.3-26.7-90.5-60-126C486.3,33.4,424.3,9.1,354.4,2C346.8,1.2,339.2,0.7,331.5,0z"/>
</g>
</svg>
