<?xml version="1.0" standalone="no"?>
<!DOCTYPE svg PUBLIC "-//W3C//DTD SVG 20010904//EN"
 "http://www.w3.org/TR/2001/REC-SVG-20010904/DTD/svg10.dtd">
<svg version="1.0" xmlns="http://www.w3.org/2000/svg"
 width="301.000000pt" height="176.000000pt" viewBox="0 0 301.000000 176.000000"
 preserveAspectRatio="xMidYMid meet">
<metadata>
Created by potrace 1.15, written by Peter Selinger 2001-2017
</metadata>
<g transform="translate(0.000000,176.000000) scale(0.100000,-0.100000)"
fill="#000000" stroke="none">
<path d="M1335 1738 c-42 -23 -55 -50 -55 -120 l0 -68 -600 0 c-649 0 -663 -1
-675 -52 -4 -18 -1 -1236 3 -1368 1 -19 -1 -46 -3 -60 -3 -14 1 -34 9 -45 14
-20 32 -20 1473 -22 1163 -2 1463 0 1483 10 l25 13 3 740 3 740 -22 20 c-20
18 -42 19 -630 22 l-609 2 0 51 c0 66 -21 114 -59 133 -36 19 -313 23 -346 4z
m313 -70 c7 -7 12 -36 12 -65 l0 -53 -155 0 -155 0 0 53 c0 29 5 58 12 65 8 8
54 12 143 12 89 0 135 -4 143 -12z m1321 -152 c21 -19 21 -21 21 -677 l0 -658
-22 -15 c-20 -14 -176 -16 -1470 -16 -1436 0 -1448 0 -1468 20 -20 20 -20 31
-18 678 l3 657 35 18 c33 16 119 17 1466 15 1392 -3 1432 -4 1453 -22z"/>
</g>
</svg>
