<?xml version="1.0" standalone="no"?>
<!DOCTYPE svg PUBLIC "-//W3C//DTD SVG 20010904//EN"
 "http://www.w3.org/TR/2001/REC-SVG-20010904/DTD/svg10.dtd">
<svg version="1.0" xmlns="http://www.w3.org/2000/svg"
 width="297.000000pt" height="173.000000pt" viewBox="0 0 297.000000 173.000000"
 preserveAspectRatio="xMidYMid meet">
<metadata>
Created by potrace 1.15, written by Peter Selinger 2001-2017
</metadata>
<g transform="translate(0.000000,173.000000) scale(0.100000,-0.100000)"
fill="#000000" stroke="none">
<path d="M1314 1701 c-40 -24 -56 -65 -52 -132 l3 -54 35 0 35 0 0 55 c1 30 4
61 9 68 9 14 281 18 290 3 4 -5 9 -37 12 -70 l7 -61 33 0 34 0 0 60 c0 35 -7
74 -15 90 -27 51 -58 60 -217 60 -122 0 -147 -3 -174 -19z"/>
<path d="M15 127 c-10 -68 -3 -100 25 -114 32 -16 2823 -19 2882 -3 43 12 50
28 40 95 -7 43 -11 49 -27 45 -11 -2 -661 -6 -1444 -7 -1250 -3 -1427 -1
-1447 12 -22 14 -23 14 -29 -28z"/>
</g>
</svg>
