<?xml version="1.0" encoding="iso-8859-1"?>
<!-- Generator: Adobe Illustrator 18.0.0, SVG Export Plug-In . SVG Version: 6.00 Build 0)  -->
<!DOCTYPE svg PUBLIC "-//W3C//DTD SVG 1.1//EN" "http://www.w3.org/Graphics/SVG/1.1/DTD/svg11.dtd">
<svg version="1.1" id="Capa_1" xmlns="http://www.w3.org/2000/svg" xmlns:xlink="http://www.w3.org/1999/xlink" x="0px" y="0px"
	 viewBox="0 0 58 58" style="enable-background:new 0 0 58 58;" xml:space="preserve">
<g>
	<path d="M56.079,16.086L5,7.914v4.33l-3-0.24v4.083H0v34h58v-34H56.079z M7,10.259l26.802,4.288L7,12.403V10.259z M4,14.169l1,0.08
		v0.001l6.757,0.54l16.203,1.296H4V14.169z M56,48.086H2v-30h51h3V48.086z"/>
	<path d="M47,43.586c0-2.481,2.019-4.5,4.5-4.5c0.138,0,0.273,0.009,0.408,0.021l1.092,0.1V26.965l-1.092,0.1
		c-0.135,0.012-0.271,0.021-0.408,0.021c-2.481,0-4.5-2.019-4.5-4.5c0-0.139,0.01-0.276,0.021-0.412l0.097-1.088H36.174
		c-2.101-1.261-4.55-2-7.174-2s-5.073,0.739-7.174,2H10.879l0.1,1.091C10.991,22.313,11,22.448,11,22.586c0,2.481-2.019,4.5-4.5,4.5
		c-0.138,0-0.274-0.009-0.409-0.021L5,26.965v12.242l1.091-0.1c0.135-0.012,0.271-0.021,0.409-0.021c2.481,0,4.5,2.019,4.5,4.5
		c0,0.138-0.009,0.274-0.021,0.409l-0.1,1.091h7.996c0.866,0,1.643-0.516,1.979-1.314c0.077-0.184,0.121-0.374,0.145-0.565l0,0
		c0.322-0.36,0.653-0.629,1.01-0.825l3.214-1.584v-0.171c-1.399-0.786-2.388-2.056-2.949-3.787
		c-0.858-0.477-1.404-1.377-1.404-2.384v-0.871c0-0.821,0.371-1.587,0.996-2.103c0.119-0.817,0.325-1.584,0.612-2.285
		c0.13-0.317,0.24-0.555,0.33-0.747c0.218-0.469,0.218-0.469,0.058-1.277c-0.083-0.419-0.139-0.802-0.176-1.131
		c-0.039-0.332,0.066-0.666,0.288-0.915c0.463-0.519,1.367-0.495,1.802,0.057c0.165,0.209,0.423,0.433,0.768,0.665
		c0.725,0.489,1.703,0.707,2.724,0.624c0.182-0.015,0.371-0.022,0.564-0.022c4.947,0,6.534,2.627,6.952,5.018
		c0.635,0.515,1.013,1.287,1.013,2.116v0.871c0,1.007-0.546,1.908-1.404,2.384c-0.561,1.731-1.55,3.001-2.949,3.787v0.182l3.1,1.583
		c0.477,0.239,0.897,0.574,1.242,0.992l0.46,0.558c0.371,0.694,1.078,1.145,1.876,1.145h7.993l-0.097-1.088
		C47.01,43.862,47,43.726,47,43.586z M19.011,42.997c-0.038,0.09-0.109,0.09-0.136,0.09h-5.894C12.737,39.9,10.187,37.349,7,37.105
		v-8.038c3.187-0.244,5.737-2.794,5.981-5.981h6.232c-0.015,0.015-0.028,0.031-0.043,0.046c-0.171,0.169-0.329,0.35-0.491,0.528
		c-0.156,0.17-0.318,0.334-0.464,0.511c-0.056,0.068-0.105,0.142-0.16,0.211c-1.64,2.05-2.679,4.523-2.967,7.179
		c-0.004,0.033-0.011,0.065-0.015,0.098C15.025,32.129,15,32.606,15,33.086c0,0.511,0.034,1.018,0.088,1.519
		c0.016,0.151,0.044,0.297,0.065,0.446c0.05,0.354,0.109,0.705,0.185,1.053c0.034,0.156,0.074,0.309,0.114,0.462
		c0.088,0.343,0.188,0.681,0.302,1.015c0.046,0.134,0.091,0.268,0.141,0.4c0.135,0.361,0.287,0.714,0.452,1.063
		c0.045,0.094,0.085,0.19,0.132,0.283c0.207,0.414,0.435,0.818,0.683,1.211c0.014,0.022,0.026,0.046,0.04,0.068
		c0.512,0.798,1.104,1.552,1.781,2.245C19.003,42.872,19.045,42.915,19.011,42.997z M45.019,43.086h-5.894
		c-0.027,0-0.098,0-0.136-0.09c-0.035-0.082,0.007-0.125,0.027-0.146c0.251-0.257,0.481-0.528,0.71-0.8
		c0.009-0.01,0.018-0.02,0.027-0.031c1.005-1.203,1.788-2.55,2.333-3.99c0.039-0.101,0.072-0.205,0.108-0.307
		c0.13-0.368,0.244-0.741,0.343-1.119c0.038-0.144,0.074-0.287,0.107-0.432c0.082-0.362,0.146-0.729,0.199-1.098
		c0.021-0.147,0.048-0.291,0.064-0.439C42.964,34.123,43,33.608,43,33.086c0-0.481-0.025-0.957-0.072-1.428
		c-0.003-0.033-0.011-0.065-0.015-0.098c-0.288-2.655-1.328-5.129-2.967-7.179c-0.055-0.069-0.104-0.143-0.16-0.211
		c-0.147-0.176-0.308-0.341-0.464-0.511c-0.162-0.177-0.32-0.359-0.491-0.528c-0.015-0.015-0.028-0.031-0.043-0.046h6.232
		c0.244,3.187,2.794,5.737,5.981,5.981v8.038C47.813,37.349,45.263,39.9,45.019,43.086z"/>
	<path d="M6.5,26.086c1.93,0,3.5-1.57,3.5-3.5s-1.57-3.5-3.5-3.5s-3.5,1.57-3.5,3.5S4.57,26.086,6.5,26.086z"/>
	<path d="M48,22.586c0,1.93,1.57,3.5,3.5,3.5s3.5-1.57,3.5-3.5s-1.57-3.5-3.5-3.5S48,20.657,48,22.586z"/>
	<path d="M6.5,40.086c-1.93,0-3.5,1.57-3.5,3.5s1.57,3.5,3.5,3.5s3.5-1.57,3.5-3.5S8.43,40.086,6.5,40.086z"/>
	<path d="M51.5,40.086c-1.93,0-3.5,1.57-3.5,3.5s1.57,3.5,3.5,3.5s3.5-1.57,3.5-3.5S53.43,40.086,51.5,40.086z"/>
</g>
<g>
</g>
<g>
</g>
<g>
</g>
<g>
</g>
<g>
</g>
<g>
</g>
<g>
</g>
<g>
</g>
<g>
</g>
<g>
</g>
<g>
</g>
<g>
</g>
<g>
</g>
<g>
</g>
<g>
</g>
</svg>
