<?xml version="1.0" encoding="utf-8"?>
<!-- Generator: Adobe Illustrator 22.1.0, SVG Export Plug-In . SVG Version: 6.00 Build 0)  -->
<svg version="1.1" id="Layer_1" xmlns="http://www.w3.org/2000/svg" xmlns:xlink="http://www.w3.org/1999/xlink" x="0px" y="0px" width="50px" height="50px"
	 viewBox="0 0 100 100" style="enable-background:new 0 0 100 100;" xml:space="preserve">
<style type="text/css">
	.st0{fill:#fde326;}
</style>
<g>
	<path class="st0" d="M51.5,0c1.3,0,2.6,0,3.8,0c0.2,0,0.4,0.1,0.6,0.1c2.3,0.2,4.6,0.4,6.9,0.7c6.9,1.1,13.4,3.4,19.1,7.6
		c6.4,4.7,10.5,10.9,12.4,18.6c1.6,6.6,1.2,13.2-0.4,19.7c-1.2,4.9-3.1,9.6-6.3,13.6c-1,1.3-1.9,2.8-2.8,4.2c-1.3,2.2-2.6,4.4-2.8,7
		c-0.2,2-0.1,4,0.1,6c0.4,3.9,0.9,7.9,1.5,11.8c0.6,3.5,1.3,7.1,2,10.6c-16.3,0-32.5,0-48.8,0c0-0.2-0.1-0.3-0.1-0.5
		c-0.5-2.4-0.9-4.9-1.5-7.3c-0.4-1.4-1-2.7-1.6-4c-0.2-0.5-0.7-0.7-1.3-0.7c-4.3,0-8.5,0-12.8-0.1c-2.5,0-4.6-1-6.3-2.8
		c-1.7-1.7-2.2-3.6-1.4-5.9c0.4-1.4,0.9-2.8,1.3-4.1c0.3-1,0.3-1.9-0.3-2.7c-0.5-0.8-1.1-1.5-1.7-2.2c-0.6-0.8-0.7-1.2,0-2
		c0.4-0.4,0.8-0.9,1.1-1.3c0.3-0.4,0.3-0.7-0.1-1c-0.4-0.3-0.9-0.6-1.2-1c-0.9-0.8-1.1-1.8-0.4-2.7c0.8-1,1.3-2.2,1.6-3.5
		c0.6-1.9,0.2-2.6-1.8-2.9c-0.1,0-0.2-0.1-0.3-0.1c-1.7-0.1-3-1-4.3-2c-0.9-0.7-1.1-1.7-0.8-2.7c0.2-0.5,0.4-1.1,0.7-1.6
		c1.5-2.2,3-4.4,4.6-6.5c2.3-3,4.6-6,7-9c0.3-0.3,0.3-0.6,0.1-1c-0.6-1.4-0.8-2.9-0.6-4.4c0.9-6.4,3.5-12,7.9-16.7
		C31,4.4,39.2,1.2,48.4,0.3C49.4,0.2,50.4,0.1,51.5,0z"/>
</g>
</svg>
